<svg xmlns="http://www.w3.org/2000/svg" viewBox="0 0 32 32">
  <defs>
    <linearGradient id="g" x1="0" y1="0" x2="1" y2="1">
      <stop offset="0%" stop-color="#9A88FF"/>
      <stop offset="100%" stop-color="#8EBD9B"/>
    </linearGradient>
  </defs>
  <circle cx="16" cy="16" r="14" fill="url(#g)" opacity="0.15"/>
  <path d="M16 6C10.5 6 6 10.5 6 16s4.5 10 10 10 10-4.5 10-10S21.5 6 16 6zm0 3c1.7 0 3.2.7 4.3 1.8C19 12.5 17.6 13.5 16 13.5s-3-1-4.3-2.7C12.8 9.7 14.3 9 16 9zm-7 7c0-2 .8-3.8 2.1-5.1C12.7 13 14.3 14.5 16 14.5s3.3-1.5 4.9-3.6C22.2 12.2 23 14 23 16c0 3.9-3.1 7-7 7s-7-3.1-7-7z" fill="url(#g)"/>
</svg>
